<svg width="484" height="408" viewBox="0 0 484 408" fill="none" xmlns="http://www.w3.org/2000/svg">
<path d="M183.429 150.714C189.057 138.42 196.051 126.848 202.965 115.277L260.847 19.2499C266.073 10.6517 274.112 0.767791 283.437 1.57136C284.724 1.73208 285.769 2.85708 285.608 4.22315C285.608 4.38386 285.527 4.54458 285.527 4.78565C280.865 18.4464 273.067 30.9017 262.857 41.1071C260.445 43.4374 257.631 45.0446 257.229 46.2499C256.988 47.0535 253.853 55.7321 252.727 59.3481C239.543 100.17 227.082 133.437 221.133 147.661" fill="#FFC9A0"/>
<path d="M226.68 141.152C220.169 160.839 218.078 171.205 207.949 176.83L154.327 197C163.01 180.446 173.863 157.464 183.912 141.714L226.68 141.152Z" fill="#307549"/>
<path d="M174.827 151.839C192.112 151.196 209.396 151.437 226.6 152.643C227.886 152.643 229.012 151.518 229.012 150.232C228.931 148.946 227.886 147.902 226.6 147.821C209.396 146.616 192.112 146.375 174.827 147.018C171.692 147.098 171.692 152 174.827 151.839Z" fill="#153A23"/>
<path d="M180.455 188C177.963 176.991 178.284 162.687 185.922 150.634C187.61 147.982 184.957 146.214 183.51 148.946C176.918 161.402 173.139 163.732 172.978 189.446C172.978 192.58 176.274 192.42 176.194 189.286L180.455 188Z" fill="#153A23"/>
<path d="M190.665 181.973C194.684 171.446 198.543 160.196 203.206 149.911C203.769 148.705 204.01 148.223 202.723 147.42C201.518 146.777 200.071 147.179 199.347 148.304C192.835 160.036 191.469 176.268 185.922 180.687C184.876 181.491 186.404 183.339 187.61 183.741C188.896 183.982 190.263 183.259 190.665 181.973Z" fill="#153A23"/>
<path d="M198.945 183.018C200.553 180.687 203.125 179.241 205.216 177.473C207.547 175.545 206.422 172.571 208.431 170.321C211.969 166.464 215.265 161.884 218.239 152C219.123 148.946 213.094 147.58 212.531 150.714C210.843 159.955 209.155 162.768 206.261 168.232C204.974 170.723 203.125 172.893 200.955 174.58C198.623 176.429 196.372 178.036 194.684 180.527C194.041 181.732 194.443 183.179 195.569 183.902C196.774 184.545 198.302 184.143 198.945 183.018Z" fill="#153A23"/>
<path d="M157.302 231.875C131.255 232.437 84.3863 223.036 58.3392 222.875C41.9392 222.714 30.6039 226.652 9.54119 213.795C7.29021 212.509 5.2804 210.902 3.67256 208.893C2.70785 207.607 3.91373 205.679 5.36079 206.241C19.9922 212.509 37.598 202.545 52.551 208.571C63.4843 212.991 124.663 207.848 159.875 200.054" fill="#FFC9A0"/>
<path d="M419.139 104.107C404.99 131.991 389.796 159.393 373.637 186.232C363.347 175.384 360.212 172.973 347.429 161L348.475 221.027L370.422 233.482C374.682 235.893 379.184 238.384 384.088 238.223C394.459 237.902 400.569 226.652 404.186 216.929C416.486 183.821 425.812 144.768 431.922 109.973L419.139 104.107Z" fill="#FFC9A0"/>
<path d="M274.755 258.473C278.533 303.795 280.302 335.536 282.874 391.384C287.135 391.143 295.335 391.545 299.435 392.589C304.42 355.143 310.931 296.804 315.755 257.589L274.755 258.473Z" fill="#FFC9A0"/>
<path d="M159.473 190.973C198.302 172.491 239.945 155.777 281.347 144.045C281.106 174.741 280.141 192.661 280.302 231.955C242.276 232.196 204.331 230.348 166.547 226.491L159.473 190.973Z" fill="#39B55D"/>
<path d="M348.475 221.027C341.159 216.848 330.869 209.857 321.784 204.473C318.649 226.491 318.81 235.732 315.755 257.67C303.133 257.67 287.377 258.393 274.755 258.473L274.514 146.054C297.747 136.652 325.402 138.902 347.51 161L348.475 221.027Z" fill="#153A23"/>
<path d="M165.582 224.562C179.973 224.643 187.529 224.08 201.92 224.803C212.371 225.366 224.269 225.205 251.522 226.732C261.41 227.295 273.308 226.973 283.196 226.973C286.331 226.973 286.331 219.178 283.196 219.178C266.474 219.178 249.753 221.83 233.031 221.348C218.802 220.946 204.492 220.384 190.263 220.062C181.982 219.821 173.782 219.741 165.502 219.661C162.447 219.661 162.367 224.562 165.582 224.562Z" fill="#153A23"/>
<path d="M150.469 210.982C169.602 211.625 188.655 210.339 207.788 209.696C225.957 209.134 245.171 210.178 263.259 209.214C271.218 208.812 282.231 204.473 286.251 207.045C288.904 208.732 289.386 204.232 286.251 204.152C272.986 203.509 254.174 204.795 238.578 205.518C219.445 206.402 201.276 206.241 182.063 206.402C171.531 206.482 161 206.482 150.469 206.161C147.333 206 147.333 210.902 150.469 210.982Z" fill="#153A23"/>
<path d="M147.414 196.196C165.422 196.277 177.561 201.018 195.327 198.125C212.853 195.232 231.504 194.187 257.149 194.027C267.278 193.946 275.398 191.536 285.527 190.732C286.814 190.652 287.939 189.607 287.939 188.241C287.939 187.036 286.814 185.428 285.527 185.83C280.543 187.116 259.32 190.812 231.584 189.366C213.657 188.482 188.333 193.062 170.406 193.384C160.276 193.545 157.543 191.375 147.414 191.295C144.278 191.375 144.278 196.196 147.414 196.196Z" fill="#153A23"/>
<path d="M167.029 179.964C197.82 178.839 225.957 180.045 256.747 178.277C265.51 177.795 276.845 174.982 285.608 174.339C286.974 174.339 288.02 173.214 288.02 171.848C288.02 170.482 286.894 169.438 285.608 169.438C254.898 171.527 227.565 175.384 193.237 174.018C184.475 173.696 175.712 174.661 166.949 174.982C163.894 175.223 163.814 180.125 167.029 179.964Z" fill="#153A23"/>
<path d="M215.345 160.759C236.327 160.839 257.39 160.277 278.373 159.071C284.241 158.75 290.19 158.348 296.059 157.866C297.425 157.866 298.471 156.741 298.471 155.455C298.471 154.089 297.345 153.045 296.059 152.964C275.076 154.571 254.094 155.536 233.112 155.777C227.163 155.857 221.294 155.857 215.345 155.857C212.129 155.937 212.129 160.759 215.345 160.759Z" fill="#153A23"/>
<path d="M43.5471 135.205C41.2961 136.009 39.3667 137.375 38 139.304C34.8647 143.482 34.9451 152.321 40.6529 154.973C44.1902 156.661 50.702 157.304 53.6765 154.732C56.1686 152.723 58.098 150.071 59.2235 147.018" fill="#32142A"/>
<path d="M68.3079 169.438L78.7588 175.946C79.0804 176.107 79.402 176.348 79.6432 176.67C79.8843 177.071 79.9647 177.554 79.9647 178.036L80.3667 191.777C80.4471 192.259 80.3667 192.821 80.0451 193.223C79.8039 193.464 79.402 193.705 79.0804 193.786C75.1412 195.071 71.202 196.277 67.1824 197.321L68.3079 169.438Z" fill="#E48929"/>
<path d="M69.3529 158.188C69.8353 173.214 69.5941 188.321 68.549 203.348C68.4686 204.393 68.3078 205.598 67.5039 206.402C66.7 207.205 65.4137 207.205 64.2078 207.205C44.2706 207.286 24.3333 207.366 4.39609 207.286C3.83334 207.366 3.1902 207.205 2.70785 206.884C2.38628 206.482 2.14511 206 2.14511 205.438C-0.186266 190.089 -0.427442 174.42 1.42158 158.991L69.3529 158.188Z" fill="#32142A"/>
<path d="M84.2255 170.723C84.3059 179.562 84.2255 188.402 84.1451 197.161C84.1451 197.723 84.1451 198.366 84.0647 198.929C83.9843 199.411 83.9039 199.411 83.7431 199.411C81.8941 199.491 79.9647 199.491 78.1157 199.491C78.0353 199.491 78.0353 199.491 77.9549 199.25C77.9549 199.009 77.8745 198.687 77.8745 198.446C77.6333 189.446 77.6333 179.723 77.7941 170.643L84.2255 170.723Z" fill="#32142A"/>
<path d="M42.5824 153.768C46.0393 154.089 49.5765 154.491 52.7118 153.205C55.8471 151.92 58.6608 149.348 59.3843 146.054C60.2687 142.277 58.3392 138.179 55.0432 136.009C51.5863 133.92 47.4059 133.518 43.6275 134.964C42.5824 135.286 41.6177 135.848 40.8138 136.491C39.1255 137.937 38.402 140.187 38 142.357C37.5177 144.446 37.5981 146.616 38.0804 148.705C38.7236 150.875 40.251 152.562 42.3412 153.366" fill="#E48929"/>
<path d="M43.0647 160.116C45.8785 155.455 48.2902 150.554 50.3804 145.491L46.9235 145.411C46.5216 145.411 46.2 145.411 45.8785 145.571C45.6373 145.732 45.3961 145.973 45.2353 146.214C42.0196 150.795 40.3314 156.178 37.2765 160.839" fill="#32142A"/>
<path d="M12.2745 126.527C9.2196 127.652 6.56666 129.741 4.71764 132.393C0.537251 138.339 0.939211 150.554 8.97843 154.089C13.9627 156.259 22.9667 156.902 27.0667 153.286C30.5235 150.393 33.0961 146.616 34.4627 142.357" fill="#32142A"/>
<path d="M4.79807 146.214C3.4314 143.482 3.91376 140.268 4.39611 137.295C4.87846 134.321 5.84317 131.107 8.17454 128.938C9.30003 127.973 10.6667 127.17 12.0334 126.607C17.1785 124.598 23.449 124.759 28.1118 127.652C32.7745 130.545 35.6687 136.25 34.5432 141.554C33.5785 146.134 29.8 149.83 25.3785 151.839C25.4589 151.839 9.70199 156.179 4.79807 146.214Z" fill="#E48929"/>
<path d="M24.8157 132.795C24.6549 132.473 24.6549 132.071 24.7353 131.67C24.7353 131.268 24.8961 130.946 25.2177 130.705C25.3784 130.625 25.5392 130.464 25.7 130.384C26.3431 130.143 27.0667 130.143 27.6294 130.545C28.1922 130.866 28.5137 131.589 28.4333 132.232C28.2726 132.795 27.8706 133.277 27.3079 133.437C27.3079 133.437 25.3784 134 24.8157 132.795Z" fill="#32142A"/>
<path d="M27.951 140.75C27.8706 140.429 27.8706 140.027 27.951 139.625C27.951 139.223 28.1118 138.902 28.4333 138.661C28.5941 138.5 28.7549 138.42 28.9157 138.339C29.5588 138.098 30.2824 138.098 30.8451 138.5C31.4078 138.821 31.7294 139.545 31.649 140.188C31.4882 140.75 31.0863 141.232 30.5235 141.393C30.5235 141.473 28.5941 141.955 27.951 140.75Z" fill="#32142A"/>
<path d="M15.9726 130.384C15.8118 130.063 15.8118 129.661 15.8922 129.259C15.8922 128.857 16.0529 128.536 16.3745 128.295C16.5353 128.214 16.6961 128.054 16.8569 127.973C17.5 127.732 18.2235 127.732 18.7863 128.134C19.349 128.455 19.6706 129.179 19.5902 129.821C19.4294 130.384 19.0275 130.866 18.4647 131.027C18.4647 131.027 16.5353 131.589 15.9726 130.384Z" fill="#32142A"/>
<path d="M7.69216 134.643C7.53137 134.321 7.53137 133.92 7.61177 133.518C7.61177 133.116 7.77255 132.795 8.09412 132.554C8.2549 132.473 8.41569 132.313 8.57647 132.232C9.21961 131.991 9.94314 131.991 10.5059 132.393C11.0686 132.714 11.3902 133.438 11.3098 134.08C11.149 134.643 10.7471 135.125 10.1843 135.286C10.2647 135.286 8.3353 135.848 7.69216 134.643Z" fill="#32142A"/>
<path d="M6.4059 143.402C6.24512 143.08 6.24512 142.679 6.32551 142.277C6.32551 141.875 6.48629 141.554 6.80786 141.312C6.96865 141.232 7.12943 141.071 7.29022 140.991C7.93335 140.75 8.65688 140.75 9.21963 141.152C9.78237 141.473 10.1039 142.196 10.0235 142.839C9.86277 143.402 9.4608 143.884 8.89806 144.045C8.97845 144.045 7.04904 144.607 6.4059 143.402Z" fill="#32142A"/>
<path d="M13.4 149.348C13.2392 149.027 13.2392 148.625 13.3196 148.223C13.3196 147.821 13.4804 147.5 13.8019 147.259C13.9627 147.179 14.1235 147.018 14.2843 146.937C14.9274 146.696 15.651 146.696 16.2137 147.098C16.7765 147.42 17.098 148.143 17.0176 148.786C16.8568 149.348 16.4549 149.83 15.8921 149.991C15.8921 150.071 13.9627 150.554 13.4 149.348Z" fill="#32142A"/>
<path d="M22.8863 147.5C22.7255 147.179 22.7255 146.777 22.8059 146.375C22.8059 145.973 22.9666 145.652 23.2882 145.411C23.449 145.33 23.6098 145.17 23.7706 145.089C24.4137 144.848 25.1372 144.848 25.7 145.25C26.2627 145.571 26.5843 146.295 26.5039 146.938C26.3431 147.5 25.9412 147.982 25.3784 148.143C25.4588 148.223 23.5294 148.705 22.8863 147.5Z" fill="#32142A"/>
<path d="M52.9529 139.866C52.8725 139.625 52.8725 139.384 52.9529 139.143C52.9529 138.741 53.1941 138.42 53.5961 138.259C54.0784 138.098 54.5608 138.179 54.9627 138.42C55.3647 138.661 55.5255 139.143 55.4451 139.625C55.2843 140.027 55.0431 140.268 54.6412 140.429C54.6412 140.348 53.2745 140.67 52.9529 139.866Z" fill="#32142A"/>
<path d="M54.9628 145.411C54.8824 145.17 54.8824 144.929 54.9628 144.687C54.9628 144.446 55.1235 144.205 55.2843 143.964C55.3647 143.884 55.5255 143.804 55.6059 143.804C56.0883 143.643 56.5706 143.643 56.9726 143.884C57.3745 144.125 57.6157 144.607 57.4549 145.089C57.2941 145.491 57.053 145.732 56.651 145.893C56.7314 145.893 55.3647 146.295 54.9628 145.411Z" fill="#32142A"/>
<path d="M46.7627 137.937C46.6824 137.696 46.6824 137.455 46.7627 137.214C46.7627 136.973 46.9235 136.732 47.0843 136.491C47.1647 136.411 47.3255 136.33 47.4059 136.33C47.8882 136.17 48.3706 136.17 48.7726 136.411C49.1745 136.652 49.3353 137.134 49.2549 137.616C49.0941 138.018 48.8529 138.259 48.451 138.42C48.5314 138.5 47.1647 138.821 46.7627 137.937Z" fill="#32142A"/>
<path d="M40.9745 140.83C40.8941 140.589 40.8941 140.348 40.9745 140.107C40.9745 139.866 41.1353 139.625 41.2961 139.384C41.3765 139.304 41.5373 139.223 41.6177 139.223C42.1 139.062 42.5824 139.063 42.9843 139.304C43.3863 139.545 43.5471 140.027 43.4667 140.509C43.3059 140.911 43.0647 141.152 42.6628 141.313C42.7432 141.313 41.3765 141.634 40.9745 140.83Z" fill="#32142A"/>
<path d="M39.9294 146.857C39.7686 146.375 39.9294 145.812 40.251 145.411C40.3314 145.33 40.4922 145.25 40.5725 145.25C41.0549 145.089 41.5373 145.089 41.9392 145.33C42.3412 145.571 42.5824 146.054 42.4216 146.536C42.3412 146.937 42.0196 147.259 41.6176 147.42C41.698 147.42 40.3314 147.741 39.9294 146.857Z" fill="#32142A"/>
<path d="M44.6725 151.116C44.5921 150.875 44.5921 150.634 44.6725 150.393C44.6725 150.152 44.8333 149.911 44.9941 149.67C45.0745 149.589 45.2353 149.509 45.3157 149.509C45.798 149.348 46.2804 149.429 46.6823 149.589C47.0843 149.83 47.2451 150.312 47.1647 150.795C47.0039 151.196 46.7627 151.437 46.3608 151.598C46.4412 151.598 45.0745 152 44.6725 151.116Z" fill="#32142A"/>
<path d="M51.3451 149.991C51.2647 149.75 51.2647 149.509 51.3451 149.268C51.3451 149.027 51.5059 148.786 51.6667 148.545C51.747 148.464 51.9078 148.384 51.9882 148.384C52.4706 148.223 52.9529 148.223 53.3549 148.464C53.7569 148.705 53.9176 149.187 53.8372 149.67C53.6765 150.071 53.4353 150.312 53.0333 150.473C53.0333 150.554 51.747 150.875 51.3451 149.991Z" fill="#32142A"/>
<path d="M33.0961 160.116L20.0725 138.982C19.9118 138.58 19.5902 138.259 19.1882 138.098C18.7863 137.937 18.3039 137.937 17.9019 138.098L14.847 138.661C19.6706 145.812 23.9314 153.366 27.3882 161.241" fill="#32142A"/>
<path d="M207.869 229.866C210.924 225.045 212.451 219.339 212.21 213.634C212.21 213.634 209.476 222.634 192.996 229.062L207.869 229.866Z" fill="#307549"/>
<path d="M321.784 204.473L298.31 189.929L319.694 221.107L321.784 204.473Z" fill="#122D1C"/>
<path d="M128.361 140.268C129.406 159.955 123.618 179.402 123.376 199.089C123.296 200.134 123.457 201.259 123.778 202.223C124.663 204.312 127.235 205.196 129.567 205.518C136.561 206.482 143.635 204.393 150.308 201.902C153.363 200.777 156.578 199.411 158.508 196.839C160.437 194.268 160.839 190.652 161.08 187.357C162.286 171.366 163.573 144.688 162.849 128.616L128.361 140.268Z" fill="#FFC9A0"/>
<path d="M167.753 166.545C175.712 151.679 183.188 134.884 179.49 121.223C178.847 118.33 177.4 115.759 175.229 113.67C170.084 109.009 162.045 110.295 155.212 111.661C146.208 113.509 135.435 114.554 129.245 107.804C127.878 106.357 126.833 104.589 125.306 103.464C123.778 102.339 121.286 101.857 119.839 103.223C118.874 104.107 118.633 105.554 118.553 106.839C117.427 117.366 118.874 128.455 124.663 137.295C130.451 146.134 141.063 152.241 151.514 150.714C152.639 150.554 153.925 150.393 154.649 151.196C154.971 151.598 155.131 152 155.292 152.482L159.553 166.545H167.753Z" fill="#32142A"/>
<path d="M157.543 161.08C161.402 158.268 166.869 159.071 169.763 163.009C171.853 165.821 172.014 169.598 170.245 172.571C167.673 176.911 161.884 178.196 156.82 178.116L157.543 161.08Z" fill="#FFC9A0"/>
<path d="M174.425 152.884C154.327 153.527 128.441 139.545 128.441 139.545C128.522 142.518 128.361 147.098 128.361 149.991C141.947 151.598 158.347 158.991 172.014 158.188C172.014 158.188 173.3 155.696 174.425 152.884Z" fill="#39B55D"/>
<path d="M123.376 134.723C125.788 140.509 130.933 144.929 136.722 147.42C142.51 149.911 148.861 150.714 155.212 150.955C156.659 151.036 158.106 150.955 159.553 150.795C161.482 150.312 163.412 149.589 165.18 148.625L123.376 134.723Z" fill="#32142A"/>
<path d="M348.475 221.027L351.931 223.036L348.475 162.045L347.429 161L348.475 221.027Z" fill="#EFB086"/>
<path d="M274.755 258.473L274.996 261.205L315.353 260.643L315.674 257.67L274.755 258.473Z" fill="#EFB086"/>
<path d="M151.031 187.759C159.071 189.045 172.094 190.25 180.133 191.536C186.404 192.5 192.835 193.545 198.543 196.196C204.251 198.848 209.557 203.429 211.486 209.455C212.129 211.304 212.29 213.312 212.049 215.241C211.084 221.187 205.055 224.723 199.508 227.054C183.992 233.643 167.512 237.42 150.71 238.304L151.031 187.759Z" fill="#39B55D"/>
<path d="M162.206 238.304C161.482 221.027 161.884 203.75 163.492 186.473C163.492 185.187 162.367 184.062 161.08 184.062C159.714 184.062 158.669 185.187 158.588 186.473C156.98 203.67 156.578 221.027 157.302 238.304C157.463 241.437 162.367 241.437 162.206 238.304Z" fill="#153A23"/>
<path d="M161.161 200.054C167.592 199.652 174.104 199.652 180.535 200.054C187.449 200.616 196.131 203.348 202.804 205.277C205.778 206 208.592 207.205 211.165 208.652C213.898 210.259 216.31 206.08 213.657 204.393C208.271 201.179 201.759 199.652 195.649 198.607C188.173 197.321 180.696 196.678 173.139 196.518C169.361 196.437 165.582 196.437 161.804 196.679C158.669 196.839 158.669 201.741 161.804 201.58L161.161 200.054Z" fill="#153A23"/>
<path d="M160.759 216.045C197.337 214.518 212.21 213.634 216.631 215C217.918 215.402 219.043 213.955 219.043 212.589C219.043 211.304 217.918 209.937 216.631 210.179C197.337 213.071 179.41 211.866 160.759 211.223C157.624 211.143 157.624 216.045 160.759 216.045Z" fill="#153A23"/>
<path d="M160.678 229.464C174.988 230.107 189.78 230.429 203.849 227.295C207.467 226.491 211.004 225.366 214.461 223.839C215.586 223.116 215.988 221.67 215.345 220.464C214.622 219.339 213.175 218.938 211.969 219.58C206.261 222.152 199.829 223.277 193.639 224C186.484 224.804 180.535 226.571 173.3 226.491C169.522 226.411 163.733 226.089 159.955 225.929C156.9 225.848 157.543 229.304 160.678 229.464Z" fill="#153A23"/>
<path d="M125.869 204.393L151.031 196.92V201.821L125.869 204.393Z" fill="#EFB086"/>
<path d="M161.724 177.714C161.724 177.714 158.829 177.795 157.624 177.312L161.563 179.723L161.724 177.714Z" fill="#EFB086"/>
<path d="M159.231 174.982C161.241 175.223 163.251 174.741 164.939 173.696C166.386 172.813 167.271 171.286 167.512 169.598C167.753 167.991 167.592 166.304 166.869 164.777C166.225 163.411 165.02 162.527 163.573 162.205C161.884 161.884 160.035 162.125 158.508 162.929C158.106 163.17 157.945 163.732 158.186 164.134C158.427 164.536 158.91 164.696 159.312 164.455C161.08 163.652 164.055 163.33 165.18 165.339C165.743 166.464 165.984 167.75 165.824 168.955C165.824 170.161 165.261 171.286 164.376 172.089C162.849 173.134 161 173.616 159.231 173.375C158.749 173.375 158.347 173.777 158.347 174.259C158.347 174.58 158.749 174.902 159.231 174.982Z" fill="#32142A"/>
<path d="M159.633 171.366C160.276 171.366 161 171.286 161.563 170.964C162.206 170.643 162.608 170.161 162.849 169.438C163.171 168.714 163.171 167.991 162.849 167.268C162.608 166.786 162.125 166.304 161.643 166.143C160.92 165.821 160.196 165.741 159.473 165.741C158.99 165.741 158.588 166.143 158.588 166.625C158.588 167.107 158.99 167.509 159.473 167.509H159.955H160.196C160.276 167.509 160.357 167.509 160.276 167.509C160.437 167.509 160.598 167.589 160.759 167.589L160.92 167.67H160.839H160.92C161 167.67 161.08 167.75 161.08 167.75H161.161H161.08L161.322 167.991C161.241 167.911 161.241 167.911 161.322 167.911L161.402 167.991V168.071C161.482 168.152 161.402 168.152 161.402 167.991C161.402 168.071 161.402 168.071 161.482 168.152C161.482 168.232 161.482 168.232 161.482 168.152V168.232C161.482 168.313 161.482 168.554 161.482 168.313C161.482 168.393 161.482 168.473 161.402 168.554C161.322 168.714 161.322 168.875 161.241 168.955V168.875L161.161 168.955C161.161 169.036 161.08 169.116 161.08 169.116C161.161 169.036 161.161 169.036 161.161 169.036L161.08 169.116L161 169.196C161.08 169.116 161.08 169.116 161.08 169.196L160.92 169.277H160.839C160.759 169.357 160.518 169.357 160.437 169.357C160.357 169.357 160.116 169.438 160.357 169.357C160.276 169.357 160.196 169.357 160.116 169.357H159.633C159.151 169.438 158.829 169.839 158.829 170.321C158.91 170.964 159.231 171.286 159.633 171.366Z" fill="#32142A"/>
<path d="M127.155 163.812C125.949 164.696 122.171 173.536 121.527 179.964C121.447 181.089 122.251 182.134 123.457 182.214C125.386 182.375 127.235 182.375 129.165 182.214C129.406 182.214 129.647 182.134 129.888 182.054C130.129 181.732 130.29 181.411 130.21 181.009L127.155 163.812Z" fill="#E48929"/>
<path d="M257.551 45.3661L249.673 51.875H255.3L257.551 45.3661Z" fill="#EFB086"/>
<path d="M392.931 152.964L420.104 165.42C420.104 165.42 428.223 135.848 432.002 109.973L418.094 106.277L392.931 152.964Z" fill="#39B55D"/>
<path d="M414.476 114.232C418.014 107.964 427.741 113.911 429.751 116.643C431.841 119.455 434.896 114.554 437.308 112.063C440.122 109.089 450.492 106.277 457.727 104.589C462.229 103.545 466.731 102.339 471.314 101.455C474.449 100.813 480.72 100.491 482.327 98.6429C487.553 92.7768 475.735 91.8929 472.52 91.8125C461.908 91.4107 451.296 91.6518 440.684 91.4107C432.404 91.25 418.175 91.0893 415.682 93.1786C411.1 97.1161 409.974 106.839 409.09 112.384C408.125 118.491 411.341 119.777 414.476 114.232Z" fill="#153A23"/>
<path d="M397.835 154.491C398.639 152 399.684 149.67 400.971 147.339C401.292 146.777 401.131 145.973 400.569 145.652C400.006 145.33 399.202 145.491 398.88 146.054C397.594 148.545 396.469 151.116 395.584 153.768C395.423 154.411 395.825 155.054 396.469 155.295C396.951 155.536 397.594 155.134 397.835 154.491Z" fill="#227B3D"/>
<path d="M402.739 157.063C403.382 154.411 404.508 151.839 406.035 149.589C406.357 149.027 406.196 148.223 405.553 147.902C404.99 147.58 404.186 147.741 403.865 148.384C402.176 150.795 400.971 153.527 400.327 156.42C400.167 157.063 400.569 157.705 401.212 157.946C401.855 158.107 402.578 157.705 402.739 157.063Z" fill="#227B3D"/>
<path d="M408.206 159.071C408.206 158.911 408.206 158.911 408.206 159.071C408.206 158.911 408.206 158.83 408.206 158.75C408.206 158.67 408.286 158.429 408.286 158.268C408.367 157.946 408.367 157.705 408.447 157.384C408.608 156.741 408.769 156.179 409.01 155.536C409.171 154.973 409.412 154.411 409.733 153.929C410.055 153.366 410.376 152.804 410.698 152.241C411.02 151.679 410.859 150.875 410.296 150.554C409.733 150.232 409.01 150.393 408.608 151.036C407 153.446 406.035 156.179 405.714 159.071C405.714 159.714 406.276 160.277 406.92 160.277C407.563 160.277 408.126 159.714 408.206 159.071Z" fill="#227B3D"/>
<path d="M413.11 162.205C413.351 159.795 413.914 157.384 414.798 155.054C414.959 154.411 414.557 153.768 413.914 153.527C413.271 153.366 412.627 153.768 412.386 154.411C411.422 156.902 410.778 159.554 410.618 162.205C410.618 162.848 411.18 163.411 411.824 163.411C412.547 163.411 413.11 162.929 413.11 162.205Z" fill="#227B3D"/>
<path d="M417.049 164.536L420.024 157.143C420.184 156.5 419.782 155.857 419.139 155.616C418.496 155.455 417.853 155.857 417.612 156.5L414.637 163.893C414.476 164.536 414.878 165.179 415.522 165.42C416.165 165.5 416.888 165.179 417.049 164.536Z" fill="#227B3D"/>
<path d="M305.786 341.643C303.535 360.446 302.088 373.705 299.837 389.857L282.875 391.464C281.91 370.25 281.026 356.911 280.463 341.241L305.786 341.643Z" fill="#39B55D"/>
<path d="M300.32 385.518C299.676 390.179 299.435 394.839 298.792 399.5C298.229 403.759 293.325 403.438 290.11 403.598C281.508 404.08 275.88 404.241 269.047 404.241C264.625 404.402 260.204 404.482 255.782 404.563C253.531 404.563 251.361 404.563 249.11 404.563C247.663 404.563 244.447 404.723 243.402 404.241C240.749 402.955 240.829 397.411 243.804 396.366C248.949 394.598 254.978 394.839 260.365 394.036C266.073 393.312 271.62 391.866 277.006 389.857C279.9 388.732 282.874 387.286 285.929 387.607C287.939 387.848 289.788 388.812 291.718 389.054C293.406 389.295 295.416 388.732 296.3 387.366C296.702 386.643 297.184 386.08 297.747 385.518C299.033 384.393 300.641 383.268 300.32 385.518Z" fill="#153A23"/>
<path d="M283.598 349.357C283.357 346.625 283.357 343.973 283.598 341.241C283.598 340.598 283.035 340.036 282.392 340.036C281.749 340.036 281.186 340.598 281.186 341.241C280.945 343.973 281.025 346.625 281.186 349.357C281.106 350 281.508 350.643 282.231 350.723C282.875 350.804 283.518 350.402 283.598 349.679C283.598 349.679 283.598 349.518 283.598 349.357Z" fill="#227B3D"/>
<path d="M289.145 349.437C288.663 346.866 288.663 344.214 289.145 341.562C289.306 340.92 288.904 340.277 288.261 340.036C287.618 339.875 286.975 340.277 286.733 340.92C286.171 343.973 286.171 347.027 286.733 350.08C286.894 350.723 287.618 351.125 288.261 350.964C288.904 350.804 289.306 350.161 289.145 349.437Z" fill="#227B3D"/>
<path d="M294.933 349.437C294.21 347.107 294.049 344.616 294.451 342.205C294.612 341.562 294.21 340.92 293.567 340.679C292.924 340.518 292.28 340.92 292.039 341.562C291.557 344.375 291.718 347.348 292.522 350.08C292.682 350.723 293.406 351.125 294.049 350.964C294.692 350.804 295.175 350.08 294.933 349.437Z" fill="#227B3D"/>
<path d="M300.802 350.321C299.998 347.991 299.516 345.58 299.435 343.089C299.516 342.446 299.114 341.804 298.39 341.723C297.747 341.643 297.104 342.045 297.024 342.768C297.024 342.929 297.024 343.009 297.024 343.17C297.104 345.821 297.586 348.473 298.471 351.045C298.631 351.688 299.355 352.089 299.998 351.929C300.641 351.768 300.963 350.964 300.802 350.321Z" fill="#227B3D"/>
<path d="M305.223 350.884L304.982 342.929C305.063 342.286 304.661 341.643 303.937 341.563C303.294 341.482 302.651 341.884 302.571 342.607C302.571 342.768 302.571 342.848 302.571 343.009L302.812 350.964C302.731 351.607 303.133 352.25 303.857 352.33C304.5 352.411 305.143 352.009 305.223 351.286C305.223 351.125 305.223 350.964 305.223 350.884Z" fill="#227B3D"/>
<path d="M272.504 159.714C281.186 157.143 289.708 155.134 298.551 154.893C309.565 154.571 320.418 157.384 329.824 163.009C336.737 167.348 343.008 172.732 348.233 179C349.198 179.964 350.726 179.964 351.69 179C352.655 178.036 352.655 176.509 351.69 175.545C342.526 164.938 331.029 156.259 317.524 152.321C307.073 149.348 296.22 149.429 285.608 151.357C280.784 152.321 275.961 153.527 271.218 154.973C268.243 155.938 269.529 160.679 272.504 159.714Z" fill="#307549"/>
<path d="M458.049 88.6786C445.267 93.4197 429.751 91.4108 418.496 78.634C411.743 70.9197 409.975 60.7143 411.904 50.8304C417.773 20.8572 461.747 13.3036 476.861 40.5447C488.759 62.1607 476.057 82.009 458.049 88.6786Z" fill="#BBD1CE"/>
<path d="M139.375 159.955H140.098L140.5 160.036C140.822 160.036 140.42 160.036 140.339 160.036C140.822 160.196 141.304 160.196 141.786 160.357C142.269 160.518 142.671 160.679 143.073 160.839C143.394 160.92 142.59 160.598 142.992 160.759L143.314 160.92C143.555 161 143.796 161.161 144.037 161.241C144.439 161.482 144.841 161.723 145.243 161.964L145.484 162.125C145.886 162.446 145.163 161.884 145.404 162.045C145.645 162.205 145.726 162.366 145.967 162.527C146.369 162.848 146.69 163.17 147.012 163.571L147.173 163.813C147.414 164.134 147.253 163.893 147.092 163.732C147.253 163.973 147.414 164.134 147.575 164.375C148.218 165.5 149.745 165.902 150.951 165.259C152.157 164.616 152.478 163.089 151.835 161.884C149.102 157.786 144.52 155.214 139.535 155.054C138.169 155.054 137.124 156.179 137.043 157.545C137.043 158.83 138.088 159.875 139.375 159.955Z" fill="#32142A"/>
<path d="M139.053 165.902C138.973 165.982 138.973 166.062 138.892 166.143C138.41 167.187 137.365 169.839 138.169 170.884C138.973 171.929 140.5 171.607 141.384 170.723C142.671 169.277 142.671 167.107 141.384 165.661C140.982 165.179 140.339 164.937 139.696 165.179C139.455 165.42 139.214 165.661 139.053 165.902Z" fill="#32142A"/>
<path d="M142.269 177.071C144.278 175.786 145.886 173.857 146.771 171.607C146.931 171.125 146.61 170.723 146.208 170.563C145.726 170.482 145.324 170.723 145.163 171.125L145.082 171.205L145.002 171.286L144.841 171.607C144.761 171.848 144.6 172.089 144.439 172.33C144.278 172.571 144.198 172.813 144.037 172.973L143.796 173.295C143.877 173.134 143.716 173.375 143.716 173.375L143.635 173.536C143.314 173.938 142.912 174.339 142.51 174.661L142.188 174.902L142.027 175.063C142.108 174.982 142.028 175.063 141.947 175.063C141.706 175.223 141.545 175.384 141.304 175.545C140.902 175.786 140.661 176.268 140.902 176.67C141.143 177.071 141.626 177.313 142.027 177.071C142.188 177.071 142.188 176.991 142.269 177.071Z" fill="#32142A"/>
<path d="M145.565 178.679C146.61 178.036 147.575 177.232 148.298 176.268C148.459 176.107 148.459 175.866 148.378 175.625C148.298 175.384 148.137 175.223 147.977 175.143C147.816 175.062 147.575 174.982 147.333 175.062C147.092 175.143 146.931 175.304 146.851 175.464L146.771 175.625L146.931 175.464C146.529 175.946 146.047 176.429 145.565 176.83L145.726 176.67C145.404 176.911 145.082 177.152 144.761 177.312C144.359 177.554 144.198 178.116 144.439 178.518C144.6 178.839 145.163 179 145.565 178.679Z" fill="#32142A"/>
<path d="M459.657 66.2589C454.431 68.3482 449.849 70.9196 444.704 73.0089C440.523 68.9107 435.459 66.5 431.278 62.3214C431.037 61.5178 431.52 63.125 431.278 62.3214C432.404 57.0178 433.69 51.5536 434.816 46.1696C439.8 44.9643 443.82 43.4375 448.804 42.3928L448.161 42.3125C452.743 45.6875 457.004 47.5357 461.506 50.9107C461.104 50.0268 461.908 51.875 461.506 50.9107C460.702 55.8928 460.461 61.2768 459.657 66.2589C459.416 67.5446 457.727 68.6696 459.094 68.9911C460.3 69.3125 461.908 68.5893 462.149 67.3036L464.48 52.5178C464.722 51.4732 464.239 50.3482 463.355 49.7857L455.878 44.2411L451.135 40.7053C450.733 40.3839 450.331 40.0625 449.929 39.8214C448.724 39.0178 447.196 39.5803 445.91 39.9018C441.649 40.9464 437.469 42.5536 433.208 43.5982C432.404 43.8393 431.68 44.4821 431.52 45.2857L429.51 55.1696L428.384 60.4732C428.223 60.9553 428.143 61.4375 428.143 61.9196C428.143 63.8482 430.876 65.5357 432.243 66.5803C435.62 69.2321 439.318 71.6428 442.453 74.6964C443.096 75.3393 443.98 75.5803 444.865 75.3393L460.541 69.0714C461.827 68.6696 462.551 67.3839 462.229 66.0178C461.827 64.8125 460.863 65.7768 459.657 66.2589Z" fill="#153A23"/>
<path d="M459.094 68.0268C459.335 68.1071 459.978 68.4285 459.094 68.0268L459.657 68.2678C462.39 69.6339 464.963 71.4821 467.696 72.9285C468.822 73.5714 470.028 74.1339 471.233 74.5357C471.877 74.7768 476.7 75.3393 475.012 74.1339C473.484 73.0893 470.188 71.241 468.259 69.9553C465.686 68.2678 463.194 66.3393 460.863 64.3303C463.837 66.9018 460.461 66.9017 458.773 67.866C458.933 67.9464 459.014 68.0268 459.094 68.0268Z" fill="#153A23"/>
<path d="M440.122 87.1518C441.649 82.491 443.82 78.2321 445.508 73.6518C445.99 72.4464 444.945 74.2143 443.739 73.9732C442.373 73.6518 442.212 72.0446 441.729 73.3303C440.041 77.9107 439.398 81.7678 437.871 86.4286C437.469 87.6339 437.067 88.8393 438.273 89.1607C439.478 89.4821 439.318 89 439.72 87.7143L440.122 87.1518Z" fill="#153A23"/>
<path d="M429.831 60.1517C428.947 60.3124 428.143 60.5535 427.259 60.9553C425.49 61.5178 423.722 61.8392 421.873 61.9196C420.586 62.0803 419.3 62.241 418.014 62.4017C417.129 62.4821 415.602 62.8839 414.718 63.0446C413.833 63.2053 412.949 63.5267 414.316 64.3303C414.718 64.491 415.12 64.5714 415.522 64.491C418.255 64.491 420.988 64.491 423.722 64.7321C426.375 65.0535 429.108 65.0535 431.841 64.7321C433.128 64.5714 429.912 63.0446 429.59 62.1607C429.269 61.2767 431.198 59.9107 429.831 60.1517Z" fill="#153A23"/>
<path d="M434.414 43.5179C434.253 43.4375 434.092 44 433.931 43.9197C433.931 43.9197 434.494 43.5983 434.253 43.4375C434.173 43.4375 434.092 44 433.931 43.9197C433.529 43.759 433.208 43.5983 432.806 43.3572C431.118 42.4733 429.51 41.4286 427.822 40.5447C426.133 39.6608 424.606 38.8572 422.998 38.0536C422.355 37.7322 419.943 36.4465 419.782 37.25C419.782 37.8929 420.023 38.5358 420.506 38.9375C421.792 40.1429 423.239 41.3483 424.686 42.3929C426.053 43.5983 427.58 44.6429 429.108 45.6875C430.796 46.7322 431.198 47.6161 433.047 48.259C434.253 48.6608 431.922 47.4554 432.243 46.25C432.645 44.884 435.7 44 434.414 43.5179Z" fill="#153A23"/>
<path d="M450.171 42.0714C450.814 40.9464 451.376 40.5446 451.618 39.3393C452.261 36.8482 453.225 34.5178 454.351 32.1875C455.155 30.6607 455.878 29.0536 456.602 27.3661C456.763 26.8036 457.084 25.8393 456.602 25.3571C456.28 25.0357 455.637 25.1964 455.316 25.4375C454.672 25.9196 454.19 26.5625 453.869 27.2857C452.582 29.5357 451.216 31.7857 450.01 34.1161C449.447 35.2411 448.965 36.3661 448.322 37.4107C447.678 38.4553 447.035 39.5 446.392 40.5446C445.749 41.5893 447.518 40.1428 448.723 40.7857C449.929 41.4286 449.447 43.1964 450.171 42.0714Z" fill="#153A23"/>
<path d="M463.355 53.9643C466.49 52.3572 469.706 50.8304 472.922 49.384L472.6 49.5447C473.967 49.1429 478.871 46.4911 478.227 45.2857C477.906 44.6429 474.047 45.7679 473.002 46.25C471.957 46.7322 468.661 47.6965 467.455 48.0982C465.284 48.7411 462.953 48.7411 460.943 49.7857C459.818 50.3482 461.747 50.509 462.39 51.634C463.033 52.759 462.149 54.6072 463.355 53.9643Z" fill="#153A23"/>
<path d="M424.043 94.3839L424.124 91.0089L422.355 93.3393C424.525 93.0179 426.776 92.6161 428.947 92.2143L428.304 92.2947C428.465 92.2947 428.545 92.2947 428.706 92.2947L428.063 92.2143C428.465 92.2947 428.224 92.1339 427.42 91.8125C427.259 91.6518 427.178 91.4911 427.098 91.3304C426.937 90.9286 427.098 91.3304 427.098 91.4107C427.178 91.7322 427.259 92.0536 427.339 92.375L427.741 94.4643C428.143 95.75 429.429 96.5536 430.716 96.1518C432.002 95.75 432.725 94.4643 432.404 93.0982C432.163 92.0536 432.002 91.0089 431.761 89.9643C431.6 89.1607 431.118 88.5179 430.555 88.0357C429.671 87.3929 428.625 87.2322 427.58 87.4732C425.41 87.7947 423.239 88.1964 421.069 88.5179C420.586 88.6786 420.104 88.9197 419.782 89.4018C419.461 89.8036 419.3 90.3661 419.22 90.9286L419.139 94.3036C419.139 95.5893 420.265 96.7143 421.551 96.7143C422.918 96.7143 423.963 95.6697 424.043 94.3839Z" fill="#153A23"/>
<path d="M463.274 90.6875C463.194 90.6875 463.194 90.6071 463.114 90.6071L463.516 91.0893C463.516 91.0089 463.435 91.0089 463.435 90.9285L463.676 91.491C463.676 91.4107 463.676 91.4107 463.596 91.3303L463.676 91.9732C463.676 91.8928 463.676 91.8125 463.676 91.7321L463.596 92.375C463.596 92.2946 463.676 92.2143 463.676 92.1339L463.435 92.6964C463.435 92.616 463.516 92.616 463.516 92.5357L463.114 93.0178C463.194 92.9375 463.274 92.8571 463.274 92.8571L462.792 93.2589C462.873 93.1785 463.033 93.0982 463.114 93.0982L462.551 93.3393C462.712 93.2589 462.873 93.2589 463.033 93.2589L462.39 93.3393C463.194 93.2589 463.998 93.2589 464.882 93.2589C465.686 93.2589 466.41 93.2589 467.214 93.3393L466.571 93.2589C466.812 93.3393 467.133 93.3393 467.374 93.5L466.812 93.2589C466.973 93.3393 467.133 93.4196 467.294 93.5803L466.812 93.1785C466.973 93.2589 467.053 93.4196 467.133 93.5L466.731 93.0178C466.812 93.1785 466.892 93.3393 466.973 93.5L466.731 92.9375C466.812 93.0982 466.812 93.1785 466.812 93.3393L466.731 92.6964C466.731 92.8571 466.731 92.9375 466.731 93.0982L466.812 92.4553C466.812 92.5357 466.812 92.616 466.731 92.6964L466.973 92.1339C466.973 92.2143 466.892 92.2946 466.812 92.375C466.169 93.5803 466.49 95.0268 467.696 95.75C468.902 96.3928 470.349 95.991 471.073 94.866C472.037 93.2589 471.716 91.1696 470.269 89.8839C468.982 88.6785 467.294 88.5178 465.606 88.5178H463.516C462.712 88.5178 461.988 88.5982 461.184 88.7589C460.059 89.0803 459.094 90.0446 458.773 91.1696C458.451 92.2946 458.772 93.5803 459.657 94.3839C460.139 94.7857 460.702 95.1071 461.425 95.1071C462.712 95.1071 463.837 93.9821 463.837 92.6964C463.837 92.0535 463.596 91.4107 463.114 91.0089L463.274 90.6875Z" fill="#153A23"/>
<path d="M250.718 401.509C248.949 402.955 249.592 406.009 251.522 407.054C253.129 408.018 254.978 407.616 256.667 407.455L258.998 407.214C259.882 407.214 260.767 407.054 261.651 406.893C263.098 406.491 264.063 405.286 264.063 403.839C264.063 403.116 264.063 402.313 264.063 401.589C264.063 400.223 262.937 399.179 261.651 399.179C260.284 399.179 259.239 400.304 259.239 401.589V403.196C259.239 403.357 259.239 403.518 259.239 403.598C259.239 403.92 259.239 403.518 259.32 403.357L260.124 402.313C260.526 402.152 260.606 402.152 260.445 402.152C260.284 402.152 261.088 402.071 260.686 402.152C259.561 402.232 258.355 402.393 257.229 402.473C256.184 402.634 255.059 402.714 254.014 402.795C253.933 402.795 253.853 402.795 253.692 402.795C254.094 402.875 254.175 402.875 254.014 402.795H253.853C253.612 402.795 254.255 403.116 253.933 402.875C253.933 402.875 254.416 403.277 254.175 403.036C254.416 403.357 254.496 403.437 254.416 403.277C254.335 403.196 254.416 403.196 254.496 403.437C254.576 403.679 254.576 403.679 254.576 403.598C254.576 403.518 254.576 403.518 254.576 404C254.576 403.679 254.496 404.321 254.496 404.321C254.416 404.563 254.335 404.723 254.175 404.884C254.014 405.045 254.014 405.125 254.094 404.964C255.059 404 255.059 402.473 254.094 401.509C253.21 400.625 251.682 400.625 250.718 401.509Z" fill="#153A23"/>
<path d="M285.688 406.411H290.351C290.833 406.411 291.396 406.411 291.878 406.25C292.763 406.009 293.486 405.366 293.808 404.562C294.049 403.598 294.129 402.554 294.049 401.509C294.049 400.866 293.808 400.223 293.326 399.741C292.441 398.777 290.914 398.696 289.949 399.661C289.467 400.143 289.145 400.786 289.226 401.509C289.226 402.152 289.226 402.795 289.226 403.437L289.306 402.795C289.306 402.875 289.306 402.875 289.306 402.955L289.547 402.393V402.473L289.949 401.991C289.949 402.071 289.869 402.071 289.869 402.071L290.351 401.67C290.351 401.67 290.271 401.75 290.19 401.75L290.753 401.509C290.673 401.509 290.592 401.509 290.512 401.589L291.155 401.509C290.271 401.589 289.386 401.509 288.502 401.509H285.769C285.126 401.509 284.482 401.75 284.08 402.232C283.598 402.714 283.357 403.277 283.357 404C283.357 405.205 284.402 406.33 285.688 406.411Z" fill="#153A23"/>
<path d="M284 393.473C286.412 395.241 288.824 397.33 291.155 399.339C291.637 399.821 292.441 399.821 292.924 399.339C293.406 398.857 293.406 398.054 292.924 397.571C290.431 395.402 287.859 393.313 285.286 391.304C284.724 390.982 283.92 391.143 283.598 391.705C283.276 392.348 283.437 393.071 284 393.473Z" fill="#227B3D"/>
<path d="M278.855 396.045C280.784 397.812 282.875 399.42 285.045 400.946C285.608 401.268 286.412 401.107 286.733 400.545C287.055 399.982 286.894 399.259 286.331 398.857C285.849 398.536 285.286 398.134 284.804 397.812C284.563 397.652 284.322 397.411 284.08 397.25L284 397.17L283.92 397.089L283.518 396.768C282.553 395.964 281.588 395.161 280.704 394.357C280.222 393.875 279.418 393.875 279.016 394.357C278.614 394.839 278.373 395.562 278.855 396.045Z" fill="#227B3D"/>
<path d="M422.274 98.6428L427.822 110.054C428.143 110.616 428.947 110.857 429.51 110.536C430.073 110.214 430.314 109.411 429.912 108.848L424.365 97.5178C424.043 96.9553 423.239 96.7142 422.676 97.116C422.114 97.3571 421.953 98.0803 422.274 98.6428Z" fill="#227B3D"/>
<path d="M428.384 96.6339C429.027 98.3214 429.831 99.9286 430.716 101.455C431.68 103.223 432.645 104.911 433.449 106.759C433.771 107.321 434.574 107.562 435.137 107.161C435.7 106.839 435.941 106.036 435.539 105.473C434.735 103.705 433.771 102.018 432.886 100.33C432.484 99.5268 432.002 98.7232 431.6 97.8393C431.439 97.4375 431.198 97.0357 431.037 96.7143L430.957 96.4732C430.796 96.1518 431.037 96.5536 430.957 96.3928C430.876 96.2321 430.796 96.0714 430.796 95.9107C430.635 95.2678 429.912 94.8661 429.269 95.0268C428.625 95.2678 428.223 95.9911 428.384 96.6339Z" fill="#227B3D"/>
<path d="M265.027 23.75C271.459 16.1964 278.533 9.12499 286.01 2.61606C287.216 1.57142 285.447 -0.116082 284.322 0.92856C276.765 7.43749 269.771 14.5893 263.339 22.1428C262.294 23.2678 263.982 25.0357 265.027 23.75Z" fill="#EFB086"/>
<path d="M270.173 26.4018C275.639 21.0179 280.865 15.3125 286.573 10.25C287.778 9.20538 286.01 7.43752 284.804 8.56252C279.096 13.7054 273.871 19.3304 268.404 24.7947C267.278 25.7589 269.047 27.5268 270.173 26.4018Z" fill="#EFB086"/>
</svg>
